<svg width="84" height="117" viewBox="0 0 84 117" fill="none" xmlns="http://www.w3.org/2000/svg">
<path d="M28.0263 115.495C101.497 101.978 90.831 13.0603 53.8348 4.06136C23.4342 -5.13864 6.83501 10.5614 2.33546 19.5614C0.335464 25.0614 -0.105217 34.4996 2.33546 46.4996C7.04939 69.6764 30.1498 68.3881 41.3955 67.5452C41.7714 67.517 42.1291 67.7067 42.3069 68.0391C50.2492 82.8864 21.8646 107.631 9.98353 113.996C9.45953 114.277 9.30916 114.933 9.83363 115.213C13.738 117.296 27.4806 115.566 27.9852 115.501C28.0002 115.499 28.0069 115.498 28.0193 115.496L28.0263 115.495Z" fill="#F1F2F3" stroke="#F1F2F3" stroke-linecap="round"/>
</svg>
